<?xml version="1.0" standalone="no"?>
<!DOCTYPE svg PUBLIC "-//W3C//DTD SVG 20010904//EN"
 "http://www.w3.org/TR/2001/REC-SVG-20010904/DTD/svg10.dtd">
<svg version="1.0" xmlns="http://www.w3.org/2000/svg"
 width="832.000000pt" height="832.000000pt" viewBox="0 0 832.000000 832.000000"
 preserveAspectRatio="xMidYMid meet">
<metadata>
Created by potrace 1.14, written by Peter Selinger 2001-2017
</metadata>
<g transform="translate(0.000000,832.000000) scale(0.100000,-0.100000)"
fill="#000000" stroke="none">
<path d="M1067 5304 c-1 -1 -31 -5 -67 -8 -36 -4 -76 -9 -90 -11 -38 -5 -177
-53 -214 -75 -19 -10 -37 -16 -40 -13 -3 4 -6 1 -6 -5 0 -6 -8 -13 -17 -16
-10 -3 -31 -17 -48 -31 -16 -13 -34 -28 -40 -32 -38 -30 -76 -63 -70 -63 3 0
-10 -16 -30 -35 -19 -20 -35 -38 -35 -41 0 -4 -12 -25 -28 -48 -28 -43 -74
-142 -87 -188 -2 -5 -4 -9 -5 -10 -1 -2 -3 -14 -5 -28 -2 -14 -6 -36 -10 -50
-4 -14 -8 -71 -10 -128 -3 -57 -7 -107 -10 -112 -4 -6 -3 -10 2 -10 4 0 9 -17
9 -38 4 -88 37 -211 81 -294 8 -16 11 -28 6 -28 -4 0 -3 -4 3 -8 5 -4 21 -25
34 -47 30 -49 43 -65 100 -124 66 -69 189 -151 226 -151 7 0 14 -5 16 -11 2
-5 12 -12 23 -14 11 -2 20 -4 20 -5 0 -1 11 -4 25 -6 14 -3 27 -9 28 -14 2 -6
7 -8 11 -5 5 2 23 0 42 -5 97 -28 371 -31 514 -5 17 3 39 8 50 9 11 2 53 12
92 22 l73 17 -1 424 c0 321 -3 423 -12 424 -7 0 -136 1 -287 2 l-275 1 -1 -95
-1 -94 171 -5 171 -5 0 -238 c1 -265 5 -249 -70 -262 -67 -12 -256 -14 -249
-3 4 6 0 6 -13 0 -11 -6 -25 -7 -33 -2 -8 5 -18 6 -22 4 -4 -3 -8 -2 -8 3 0 4
-10 9 -22 9 -30 2 -65 11 -81 21 -6 4 -19 8 -27 10 -8 1 -16 7 -18 13 -2 5 -7
8 -12 5 -4 -3 -13 2 -20 10 -7 8 -18 15 -26 15 -7 0 -18 8 -23 18 -6 9 -11 13
-11 9 0 -11 -80 70 -112 113 -37 51 -77 127 -71 134 4 3 1 6 -5 6 -7 0 -11 3
-10 8 1 4 -5 27 -12 52 -7 25 -15 52 -17 60 -5 19 -5 228 0 255 5 28 18 77 24
95 8 20 8 21 18 54 4 16 15 37 23 47 9 10 17 24 18 32 4 30 133 163 181 188
15 7 30 17 33 20 8 10 74 39 98 44 12 2 26 6 30 9 15 9 65 16 138 21 38 2 74
5 80 6 5 1 11 0 14 -1 3 -1 25 -3 50 -5 99 -6 161 -18 225 -46 17 -7 32 -13
35 -14 3 -1 22 -9 42 -19 59 -26 55 -33 63 111 4 85 3 93 -15 103 -11 6 -20 8
-20 4 0 -3 -6 -2 -12 3 -12 10 -50 22 -93 30 -10 2 -22 7 -25 11 -3 4 -16 8
-30 8 -14 1 -56 5 -95 8 -72 7 -224 14 -228 10z"/>
<path d="M2041 5292 c6 -10 31 -29 55 -42 24 -12 44 -26 44 -30 0 -10 -77 26
-85 40 -4 6 -12 7 -18 3 -15 -9 -47 -11 -47 -3 0 4 -6 7 -14 7 -14 0 -10 -33
6 -43 5 -3 4 -12 -3 -20 -17 -21 10 -41 93 -70 40 -14 82 -29 93 -34 11 -5 27
-11 35 -13 8 -3 -21 -3 -65 0 -44 3 -88 10 -97 15 -14 6 -18 5 -18 -7 0 -8 -5
-15 -11 -15 -5 0 -7 5 -4 10 3 6 1 10 -4 10 -18 0 -12 -25 8 -40 23 -16 17
-34 -7 -22 -24 12 -55 9 -59 -5 -3 -7 7 -17 21 -23 14 -5 26 -13 26 -18 0 -11
77 -49 110 -55 14 -3 37 -10 51 -15 15 -6 30 -8 33 -5 3 4 6 1 6 -6 0 -7 -7
-10 -17 -7 -19 5 -70 15 -113 21 -14 2 -38 6 -55 10 l-30 7 25 -21 c14 -11 29
-21 33 -21 5 0 23 -6 40 -14 40 -19 111 -38 157 -44 85 -10 277 -1 302 14 4 3
25 7 45 10 21 2 54 6 73 9 70 8 120 28 120 47 0 5 7 8 15 8 9 0 18 7 21 15 4
8 12 15 20 15 8 0 14 5 14 12 0 6 3 9 6 6 3 -4 23 12 45 34 39 41 50 73 27 81
-10 3 -10 7 1 21 12 14 11 19 -3 35 -16 17 -15 19 19 42 26 18 35 31 35 52 0
25 -12 33 -42 28 -4 0 -23 8 -41 18 l-34 19 -28 -24 c-16 -14 -33 -23 -39 -21
-5 2 -18 -3 -27 -11 -16 -14 -56 -24 -86 -23 -7 1 -19 1 -25 2 -7 0 -29 0 -48
-1 -39 -1 -155 6 -155 10 0 1 -11 3 -25 4 -14 2 -35 8 -47 14 -15 8 -24 9 -28
2 -7 -11 -66 -4 -105 10 -3 1 -13 1 -23 0 -10 -1 -24 4 -32 10 -8 7 -15 7 -19
1 -4 -6 -15 -5 -30 3 -14 7 -38 11 -55 10 -17 -1 -31 2 -31 7 0 5 -5 9 -10 9
-6 0 -6 -7 1 -18z m139 -88 c0 -8 -19 -13 -24 -6 -3 5 1 9 9 9 8 0 15 -2 15
-3z m85 -304 c3 -5 1 -10 -4 -10 -6 0 -11 5 -11 10 0 6 2 10 4 10 3 0 8 -4 11
-10z m45 -6 c0 -8 -19 -13 -24 -6 -3 5 1 9 9 9 8 0 15 -2 15 -3z m54 -5 c-4
-7 -44 0 -44 7 0 2 11 3 24 2 14 -1 23 -5 20 -9z"/>
<path d="M3500 5282 c0 -4 -63 -7 -140 -6 -77 0 -140 -2 -141 -5 -5 -27 -3
-184 2 -192 4 -7 91 -11 252 -10 230 1 245 0 250 -18 2 -10 0 -26 -5 -35 -6
-11 -6 -21 1 -29 6 -8 6 -18 1 -27 -5 -9 -5 -19 1 -27 7 -8 7 -18 0 -32 -7
-12 -8 -28 -2 -43 5 -13 5 -33 0 -45 -5 -13 -4 -25 1 -28 7 -4 7 -13 0 -24 -6
-12 -5 -22 2 -29 9 -9 9 -12 -1 -12 -10 0 -11 -3 -3 -13 7 -8 7 -18 2 -27 -5
-9 -5 -19 2 -27 7 -9 7 -13 -1 -13 -7 0 -8 -8 -1 -24 5 -13 6 -26 4 -29 -9 -8
-9 -121 -1 -134 5 -7 3 -21 -2 -32 -7 -12 -8 -29 -2 -43 4 -12 5 -35 0 -50 -4
-16 -3 -30 2 -34 6 -4 6 -11 -1 -19 -8 -9 -8 -15 0 -20 6 -3 7 -11 4 -17 -4
-6 -6 -37 -5 -67 2 -71 3 -65 -1 -134 -2 -32 0 -61 4 -64 5 -2 5 -9 2 -15 -8
-13 -8 -284 0 -297 6 -9 190 -13 217 -5 14 4 16 21 14 127 -1 67 3 128 8 135
5 6 6 12 1 12 -13 0 -12 1123 1 1132 5 4 98 7 205 7 283 0 290 0 289 9 -1 4 0
12 1 17 5 25 1 167 -5 173 -4 4 -32 8 -63 10 -67 3 -57 3 -149 -1 -40 -1 -73
1 -73 6 0 4 -8 4 -17 -1 -10 -4 -45 -7 -78 -5 -33 2 -66 3 -72 3 -7 0 -34 0
-60 0 -27 0 -61 0 -78 -1 -25 -1 -85 -1 -217 1 -7 0 -31 -1 -53 -3 -22 -1 -52
0 -67 4 -16 4 -28 5 -28 1z"/>
<path d="M4907 5283 c-3 -5 -41 -7 -84 -6 -55 1 -80 -2 -81 -10 -5 -55 -3
-1597 2 -1606 5 -8 44 -11 116 -10 92 1 110 4 114 18 2 9 3 317 2 684 0 368 1
673 5 678 3 5 11 -8 18 -29 7 -20 17 -47 22 -59 5 -13 14 -35 20 -50 6 -16 15
-35 18 -43 4 -8 14 -36 22 -62 7 -27 17 -48 21 -48 4 0 7 -3 6 -7 -3 -10 19
-78 40 -123 8 -19 15 -41 15 -47 0 -7 4 -13 9 -13 5 0 6 -4 3 -10 -3 -5 -1
-10 4 -10 6 0 11 -7 11 -15 0 -8 23 -74 50 -147 28 -73 52 -137 53 -143 1 -5
4 -12 7 -15 9 -9 43 -104 43 -122 1 -10 5 -18 9 -18 4 0 8 -4 8 -9 0 -5 4 -20
9 -33 5 -13 8 -25 8 -28 0 -3 6 -16 13 -30 8 -14 15 -29 16 -35 2 -10 39 -111
57 -155 6 -14 11 -27 11 -30 1 -3 4 -9 7 -15 4 -5 12 -26 18 -46 l12 -37 115
-1 115 -2 15 38 c8 21 19 47 24 58 7 17 20 50 25 65 1 3 5 14 10 25 37 93 77
202 78 213 0 6 4 12 9 12 4 0 7 3 6 8 -2 8 45 138 68 186 8 16 14 33 14 39 0
5 6 23 14 40 13 30 19 46 26 72 2 6 16 42 32 80 17 39 31 75 32 80 2 6 8 23
14 38 7 16 12 34 12 42 0 8 4 16 9 20 5 3 12 19 16 35 4 17 10 30 14 30 4 0 7
8 8 18 1 15 22 78 40 122 3 8 7 17 7 20 4 18 51 127 58 135 6 7 9 7 8 0 -2 -5
-1 -14 0 -20 5 -27 2 -334 -4 -344 -4 -6 -4 -11 1 -11 7 0 9 -48 3 -67 -1 -5
-1 -12 0 -18 2 -10 1 -209 -2 -235 -1 -8 2 -25 6 -37 5 -15 3 -23 -4 -23 -6 0
-8 -5 -5 -10 4 -6 6 -48 5 -93 -1 -45 -1 -89 -1 -97 0 -8 1 -49 0 -90 0 -41 1
-95 1 -120 0 -25 0 -61 -1 -80 -1 -19 -1 -41 0 -47 0 -7 2 -28 3 -45 l3 -33
115 0 115 0 1 147 c1 81 4 154 7 162 4 9 3 16 -1 16 -7 0 -7 85 -1 115 1 6 0
15 -1 20 -1 9 -2 256 0 340 0 17 -1 41 -3 55 -2 14 0 35 5 47 4 12 4 24 0 27
-9 6 -8 319 2 334 4 7 3 12 -1 12 -10 0 -11 120 -1 135 4 6 4 16 0 22 -4 6 -6
51 -6 100 l1 89 -101 -1 c-55 0 -107 4 -113 9 -8 5 -13 5 -13 0 0 -5 -34 -9
-75 -8 -81 1 -93 -3 -100 -32 -8 -34 -51 -154 -58 -161 -4 -3 -7 -13 -7 -21 0
-8 -6 -28 -14 -45 -22 -51 -29 -69 -40 -109 -5 -16 -11 -28 -15 -28 -4 0 -7
-9 -8 -19 -1 -11 -13 -48 -28 -83 -14 -35 -28 -74 -31 -88 -3 -13 -8 -27 -12
-30 -4 -3 -8 -12 -10 -20 -3 -17 -79 -225 -92 -255 -12 -26 -71 -186 -75 -205
-8 -33 -31 -85 -40 -92 -5 -4 -7 -8 -3 -8 4 0 -1 -20 -12 -44 -10 -24 -16 -47
-13 -50 4 -3 1 -6 -5 -6 -7 0 -11 -3 -11 -7 1 -5 1 -15 0 -23 -1 -13 -13 7
-42 75 -26 62 -129 342 -129 353 0 6 -4 12 -10 12 -5 0 -10 10 -10 23 0 13 -3
27 -7 31 -5 4 -8 11 -8 14 -1 6 -42 118 -80 212 -13 33 -26 69 -30 80 -1 3 -7
18 -13 33 -7 16 -10 33 -6 38 3 5 1 9 -3 9 -5 0 -15 17 -23 37 -7 21 -20 54
-28 73 -9 19 -16 42 -16 50 0 8 -3 17 -6 20 -4 3 -19 41 -35 85 -16 44 -31 85
-35 90 -3 6 -12 29 -19 51 l-13 42 -54 -2 c-30 -1 -54 2 -54 6 0 5 -5 6 -12 2
-15 -9 -71 -10 -86 -1 -6 4 -13 4 -15 0z"/>
<path d="M7465 5280 c-11 -4 -24 -6 -30 -4 -10 4 -122 -165 -117 -178 1 -5 -2
-8 -8 -8 -5 0 -10 -7 -10 -15 0 -8 -4 -15 -10 -15 -5 0 -10 -7 -10 -15 0 -8
-5 -15 -11 -15 -5 0 -7 -4 -4 -10 3 -5 2 -10 -3 -10 -5 0 -15 -13 -22 -30 -7
-16 -16 -30 -21 -30 -5 0 -9 -5 -9 -10 0 -6 -16 -36 -35 -66 -19 -30 -35 -58
-35 -63 0 -5 -7 -14 -15 -21 -9 -7 -13 -15 -10 -18 2 -3 -5 -13 -16 -23 -11
-9 -21 -21 -21 -26 -1 -17 -22 -53 -30 -53 -4 0 -8 -6 -8 -13 0 -7 -9 -23 -20
-35 -11 -12 -20 -26 -20 -32 0 -6 -5 -16 -10 -23 -26 -30 -77 -116 -72 -121 3
-3 1 -6 -5 -6 -6 0 -16 -13 -23 -30 -7 -16 -16 -30 -21 -30 -5 0 -9 -7 -9 -15
0 -8 -3 -15 -7 -15 -5 0 -19 -23 -32 -50 -14 -28 -28 -50 -32 -50 -12 0 -21
-53 -23 -130 -1 -77 8 -112 29 -103 22 8 445 8 445 0 0 -5 6 -5 12 -1 17 11
108 11 108 1 0 -5 6 -5 12 0 11 6 44 7 129 4 19 -1 19 3 22 -149 1 -67 -2
-122 -6 -122 -5 0 -5 -5 -1 -11 4 -7 7 -28 8 -48 l1 -36 115 0 115 0 0 42 c0
24 3 43 6 43 4 0 4 15 0 33 -8 37 -7 70 3 85 3 6 3 13 -2 16 -8 5 -7 134 1
142 7 7 137 9 137 2 0 -4 11 -3 24 2 13 5 27 6 31 2 4 -4 6 -2 5 3 -1 6 -2 15
0 20 5 27 2 157 -4 163 -4 3 -47 7 -97 7 -82 0 -94 4 -90 28 0 4 -3 7 -7 7
-10 0 -8 61 2 78 4 7 3 12 -1 12 -5 0 -8 47 -8 105 0 58 4 105 9 105 5 0 4 6
-1 13 -8 10 -9 56 -4 172 2 42 2 66 -2 182 -1 46 2 83 6 83 5 0 5 5 1 12 -11
17 -11 238 -1 238 5 0 2 6 -5 13 -9 10 -45 13 -128 12 -63 0 -122 2 -130 6 -8
3 -24 3 -35 -1z m60 -246 c0 -10 -4 -25 -9 -31 -5 -8 -5 -13 0 -13 11 0 10
-292 0 -309 -4 -6 -4 -11 1 -11 10 0 9 -52 -1 -68 -4 -7 -3 -12 1 -12 5 0 7
-26 6 -57 -2 -32 -3 -62 -3 -68 0 -5 1 -54 3 -108 1 -53 -1 -97 -5 -97 -4 0
-5 -6 -2 -14 3 -8 -1 -18 -8 -22 -7 -5 -118 -9 -245 -9 -183 0 -233 3 -233 13
0 7 38 78 85 158 47 81 85 150 85 155 0 5 5 9 11 9 5 0 8 4 5 9 -4 5 -2 11 2
13 5 1 28 39 52 83 24 44 50 88 58 98 8 9 12 17 8 17 -4 0 6 19 21 43 34 51
39 59 100 164 46 80 68 98 68 57z"/>
<path d="M2030 4684 c0 -2 35 -26 78 -55 42 -28 66 -48 52 -44 -14 4 -32 13
-40 20 -8 7 -25 16 -37 19 -13 4 -23 12 -23 17 0 5 -7 9 -15 9 -8 0 -15 -4
-15 -9 0 -6 -12 -6 -31 1 -32 11 -53 3 -29 -12 8 -6 11 -10 5 -10 -5 0 -3 -5
5 -10 13 -9 13 -12 0 -23 -14 -11 -14 -14 1 -29 10 -9 20 -14 23 -10 3 3 6 0
6 -6 0 -7 9 -12 19 -12 11 0 22 -4 25 -9 3 -5 20 -12 38 -15 18 -3 46 -13 62
-21 15 -8 32 -12 37 -9 5 3 9 0 9 -5 0 -13 -157 0 -181 15 -9 5 -10 2 -6 -9 4
-11 2 -14 -9 -10 -21 8 -17 -6 9 -27 l22 -19 -47 3 c-55 4 -60 -4 -20 -33 15
-12 32 -25 38 -30 26 -21 57 -34 114 -46 36 -8 60 -18 60 -26 0 -4 -19 -2 -41
6 -50 18 -52 18 -43 4 4 -8 1 -8 -12 -1 -27 13 -94 22 -94 12 0 -7 20 -19 43
-25 4 -2 10 -4 15 -5 4 -1 10 -2 15 -1 4 0 7 -3 7 -8 0 -12 178 -54 202 -48
10 3 20 1 23 -4 3 -4 11 -6 18 -4 7 2 48 6 92 9 76 5 91 7 160 21 17 4 48 8
70 9 22 1 47 6 55 11 8 5 25 10 38 11 13 2 30 11 38 21 7 10 14 14 14 9 0 -5
10 2 23 16 12 14 32 29 45 33 13 4 21 9 19 12 -3 2 8 17 25 32 33 29 49 87 21
77 -13 -5 -13 -2 2 21 12 18 14 28 7 31 -21 7 -13 26 22 54 25 20 33 33 29 48
-4 17 -32 27 -47 18 -2 -2 -13 5 -25 16 -28 25 -71 24 -93 -4 -9 -12 -22 -19
-28 -15 -5 3 -10 1 -10 -5 0 -6 -4 -9 -9 -6 -5 4 -11 1 -13 -6 -3 -7 -28 -13
-64 -14 -32 -1 -61 -3 -64 -4 -3 -1 -9 -1 -15 0 -5 1 -41 4 -80 5 -38 2 -70 5
-70 5 0 1 -14 3 -31 5 -17 1 -37 6 -45 11 -18 11 -59 13 -59 3 0 -6 -29 -5
-37 1 -2 2 -7 4 -13 5 -5 1 -11 3 -12 5 -2 1 -27 3 -56 6 -29 2 -61 8 -71 13
-9 5 -29 8 -44 7 -15 -2 -27 0 -27 4 0 4 -7 7 -15 7 -8 0 -15 -2 -15 -3z m254
-402 c3 -5 -1 -9 -9 -9 -8 0 -12 4 -9 9 3 4 7 8 9 8 2 0 6 -4 9 -8z"/>
<path d="M2040 4066 c8 -10 40 -36 72 -57 32 -22 58 -42 58 -44 0 -6 -92 46
-112 63 -11 10 -18 11 -18 4 0 -7 -13 -10 -32 -8 -35 4 -56 -3 -40 -13 17 -10
19 -46 2 -43 -8 2 -2 -10 15 -26 16 -16 34 -29 40 -29 15 -2 178 -63 184 -70
4 -3 -3 -3 -14 1 -12 3 -51 8 -88 11 -37 2 -72 7 -77 10 -6 3 -10 1 -10 -4 0
-6 -7 -11 -15 -11 -8 0 -15 -5 -15 -11 0 -5 5 -7 10 -4 6 3 10 0 10 -9 0 -8 6
-16 13 -19 6 -3 -13 -3 -43 -1 l-55 5 26 -23 c70 -61 101 -80 133 -82 11 -1
21 -7 24 -14 3 -10 -22 -11 -48 -2 -3 1 -15 1 -27 1 -11 -1 -24 3 -28 9 -3 5
-11 8 -16 4 -22 -13 56 -49 183 -83 50 -14 95 -18 185 -16 65 2 129 6 143 9
64 15 78 17 128 21 30 3 59 8 65 12 7 4 19 8 27 8 17 1 154 100 184 134 24 26
29 51 14 68 -7 9 -7 17 2 28 10 12 10 19 2 27 -19 19 -14 32 19 47 16 7 28 16
25 18 -3 3 -1 14 4 23 7 14 4 21 -14 34 -14 9 -26 11 -28 6 -2 -6 -14 -2 -28
7 -38 27 -76 24 -90 -6 -8 -18 -14 -21 -19 -12 -6 10 -10 9 -15 -4 -3 -10 -12
-15 -21 -11 -8 3 -15 1 -15 -5 0 -6 -7 -9 -15 -6 -8 4 -17 2 -20 -3 -5 -8
-192 -8 -211 1 -5 2 -27 4 -49 4 -22 0 -43 4 -46 8 -9 12 -99 16 -99 4 0 -5
-6 -4 -14 3 -8 6 -30 13 -48 15 -18 2 -33 4 -33 5 0 2 -47 9 -96 14 -20 2 -47
10 -60 17 -22 11 -23 11 -9 -5z m150 -392 c0 -3 -37 1 -50 6 -3 2 -9 2 -13 1
-5 -1 -6 3 -3 8 6 9 66 -5 66 -15z"/>
<path d="M625 3314 c-6 -3 -9 -52 -8 -126 2 -174 2 -170 16 -166 9 4 12 42 13
147 0 78 -2 144 -5 145 -4 2 -10 2 -16 0z"/>
<path d="M1357 3313 c-3 -5 -6 -73 -6 -151 0 -117 3 -142 15 -142 11 0 14 19
15 93 1 50 0 97 -1 102 -1 6 -2 17 -1 25 5 53 -8 96 -22 73z"/>
<path d="M4064 3312 c-6 -4 -10 -64 -9 -147 0 -118 2 -140 15 -140 13 0 15 22
15 138 0 141 -3 161 -21 149z"/>
<path d="M4619 3298 c-4 -79 -4 -278 1 -278 21 1 25 27 24 150 -2 158 -1 150
-14 150 -5 0 -11 -10 -11 -22z"/>
<path d="M929 3303 c-1 -8 0 -213 1 -259 0 -19 30 -31 30 -12 0 5 7 2 16 -7
20 -20 70 -12 98 15 23 22 33 100 17 139 -18 42 -56 54 -117 36 -20 -6 -21 -3
-19 44 1 37 -2 51 -12 51 -7 0 -13 -3 -14 -7z m129 -130 c10 -16 13 -37 9 -65
-6 -44 -21 -64 -51 -70 -40 -7 -80 96 -50 127 8 7 14 18 14 24 0 21 62 8 78
-16z"/>
<path d="M389 3277 c-19 -12 -40 -35 -48 -51 -18 -39 -20 -115 -3 -132 7 -8
10 -14 6 -14 -12 0 40 -45 66 -56 32 -14 121 -9 130 7 5 6 7 39 6 73 l-1 61
-39 3 c-21 2 -43 -1 -49 -7 -8 -8 -7 -11 4 -13 7 0 19 -2 24 -3 6 -2 16 -3 23
-4 18 -2 16 -87 -2 -94 -29 -11 -98 0 -115 19 -46 51 -48 123 -5 172 24 27 93
44 118 30 23 -13 40 0 25 18 -19 23 -100 18 -140 -9z"/>
<path d="M1562 3286 c-7 -12 -7 -250 1 -262 6 -11 121 -11 125 -1 7 20 -2 24
-48 21 -33 -1 -50 2 -51 9 -6 96 -10 88 60 91 19 1 36 7 39 14 4 13 -2 14 -60
14 -35 0 -36 1 -40 39 -4 45 9 62 44 59 49 -4 67 0 62 14 -6 16 -122 18 -132
2z"/>
<path d="M3767 3294 c-8 -8 3 -34 14 -34 5 0 9 9 9 20 0 19 -11 26 -23 14z"/>
<path d="M4236 3284 c-6 -15 2 -17 47 -14 16 1 27 -4 28 -12 1 -7 2 -65 4
-128 3 -134 2 -127 17 -112 8 8 12 51 13 130 l0 117 30 3 c92 9 65 26 -45 28
-67 1 -90 -2 -94 -12z"/>
<path d="M5379 3288 c0 -7 -2 -70 -2 -141 -2 -108 0 -127 13 -125 12 3 15 23
16 101 1 54 4 100 7 104 5 5 20 -22 32 -57 22 -65 66 -150 77 -150 12 0 48 67
48 90 0 5 9 25 20 45 11 19 17 35 14 35 -4 0 0 7 7 17 8 9 13 18 12 20 -2 1
-3 6 -3 11 0 4 4 2 8 -5 4 -6 6 -54 5 -107 -1 -71 3 -98 13 -107 17 -14 15
-25 17 143 2 99 -1 129 -11 133 -8 3 -18 3 -23 -1 -11 -6 -55 -100 -79 -169
-17 -45 -40 -72 -40 -45 0 6 -9 30 -20 52 -11 23 -20 50 -20 59 0 10 -5 19
-11 21 -5 2 -11 10 -13 18 -5 26 -19 55 -30 62 -17 12 -36 9 -37 -4z"/>
<path d="M7874 3292 c-18 -12 -134 -194 -129 -202 2 -4 28 -8 57 -9 29 -2 59
-3 66 -3 9 -1 12 -10 9 -25 -2 -12 -3 -23 -1 -23 1 0 10 -3 19 -6 11 -5 16 -2
15 7 -5 33 1 49 18 49 10 0 19 7 19 15 0 8 -3 12 -7 10 -3 -2 -12 0 -19 4 -9
6 -13 36 -14 96 -2 85 -9 103 -33 87z m3 -111 l1 -69 -33 -4 c-66 -8 -68 1
-19 75 24 37 46 67 48 67 2 0 3 -31 3 -69z"/>
<path d="M7540 3254 c0 -18 -7 -28 -20 -31 -23 -6 -22 -28 1 -28 11 0 14 -18
16 -78 0 -43 6 -83 12 -91 9 -11 20 -12 66 -6 6 0 -2 8 -17 16 -29 15 -30 21
-30 109 0 52 1 55 10 54 18 -3 32 2 32 11 0 6 -9 10 -20 10 -14 0 -20 7 -20
24 0 13 -7 26 -15 30 -11 4 -15 -2 -15 -20z"/>
<path d="M1990 3250 c0 -10 -7 -23 -16 -28 -9 -5 -14 -15 -10 -21 4 -6 12 -9
17 -6 5 4 9 0 10 -7 0 -7 1 -45 2 -85 1 -39 5 -74 8 -77 4 -4 20 -8 38 -11 23
-2 31 0 31 12 0 8 -6 13 -12 11 -7 -3 -19 1 -25 8 -18 17 -13 148 5 150 6 1
17 2 23 3 8 1 8 5 -1 16 -6 8 -17 13 -23 12 -7 -1 -12 8 -11 21 0 15 -5 22
-18 22 -11 0 -18 -7 -18 -20z"/>
<path d="M5141 3258 c3 -29 -2 -38 -22 -38 -18 0 -19 -2 -9 -15 7 -8 16 -12
21 -9 11 6 11 6 13 -76 3 -86 10 -106 40 -105 36 0 42 13 14 26 -24 10 -25 15
-24 83 1 49 5 71 14 72 29 3 32 4 32 13 0 5 -10 11 -22 13 -17 2 -22 9 -21 26
2 16 -2 22 -18 22 -11 0 -19 -6 -18 -12z"/>
<path d="M750 3218 c-72 -24 -72 -176 0 -197 57 -18 120 14 126 63 1 11 3 26
5 31 2 6 -1 25 -5 43 -12 52 -70 80 -126 60z m70 -28 c46 -25 41 -118 -8 -144
-24 -12 -30 -12 -54 2 -16 9 -29 25 -29 37 -5 57 1 81 21 97 25 20 43 22 70 8z"/>
<path d="M1176 3214 c-23 -22 -21 -24 25 -18 32 5 43 2 54 -12 17 -24 2 -44
-34 -44 -14 0 -37 -6 -50 -13 -26 -13 -46 -63 -30 -73 5 -3 7 -9 4 -14 -3 -4
7 -11 23 -16 41 -12 62 -12 62 -1 0 5 13 7 30 4 31 -7 32 -5 32 43 0 83 -4
118 -14 132 -19 24 -83 32 -102 12z m87 -108 c14 -36 -38 -78 -78 -62 -20 7
-19 46 0 60 21 15 73 17 78 2z"/>
<path d="M1801 3212 c-6 -10 -10 -11 -15 -3 -4 6 -13 11 -19 11 -9 0 -12 -27
-12 -97 1 -77 4 -98 15 -98 10 0 14 18 15 74 2 81 17 105 63 96 35 -6 36 -8
38 -83 2 -37 3 -73 3 -79 1 -7 7 -13 14 -13 9 0 12 18 11 68 -2 95 -3 96 -17
116 -17 24 -84 29 -96 8z"/>
<path d="M2164 3219 c-3 -6 -17 -8 -30 -5 l-24 6 0 -100 c0 -82 3 -100 15
-100 12 0 15 13 15 58 0 79 8 100 43 118 23 12 27 18 16 25 -19 12 -26 11 -35
-2z"/>
<path d="M2267 3212 c-31 -19 -49 -71 -41 -116 6 -35 34 -75 54 -77 58 -5 82
-3 91 7 14 17 -6 28 -28 16 -25 -15 -72 6 -79 34 -4 14 -4 28 0 31 3 3 31 6
63 7 65 1 75 14 53 66 -18 44 -69 59 -113 32z m76 -27 c9 -8 14 -23 13 -32 -2
-14 -13 -18 -49 -18 -54 0 -66 16 -35 45 26 24 51 26 71 5z"/>
<path d="M2486 3214 c-15 -9 -25 -11 -22 -5 4 6 1 11 -7 11 -20 0 -23 -18 -22
-155 0 -99 3 -120 15 -123 12 -2 15 8 14 48 l0 50 24 -16 c28 -18 72 -11 97
16 9 10 18 42 21 71 5 46 2 58 -18 82 -28 34 -64 41 -102 21z m76 -31 c12 -15
20 -87 11 -109 -3 -8 -17 -21 -32 -28 -23 -12 -29 -12 -48 3 -27 23 -35 80
-15 120 12 25 20 31 44 29 16 -1 34 -8 40 -15z"/>
<path d="M2718 3223 c-10 -2 -18 -10 -18 -16 0 -8 -3 -8 -8 1 -5 7 -15 10 -23
7 -13 -5 -14 -20 -10 -172 1 -13 7 -23 14 -23 9 0 13 18 13 64 1 61 21 118 42
115 21 -4 31 3 26 16 -6 16 -7 16 -36 8z"/>
<path d="M2817 3214 c-52 -28 -59 -142 -11 -180 32 -26 107 -27 112 -2 3 13
-3 15 -31 8 -21 -4 -39 -3 -49 4 -14 10 -38 48 -38 60 0 3 32 6 70 6 l70 0 0
29 c0 38 -40 85 -73 86 -13 1 -36 -4 -50 -11z m78 -34 c34 -37 1 -53 -88 -41
-9 1 12 43 27 53 19 13 42 9 61 -12z"/>
<path d="M3030 3211 c-16 -11 -21 -12 -16 -3 6 10 3 13 -10 10 -16 -3 -18 -15
-18 -101 -1 -71 2 -97 12 -97 13 0 13 1 17 75 2 28 3 55 4 60 3 24 22 39 51
41 37 3 49 -18 46 -84 -1 -23 2 -42 6 -42 5 0 4 -9 -2 -19 -10 -20 1 -37 19
-27 15 9 8 150 -9 174 -19 28 -67 35 -100 13z"/>
<path d="M3244 3218 c-27 -13 -50 -56 -49 -93 3 -82 37 -115 109 -109 46 4 47
5 37 22 -5 9 -15 10 -32 4 -36 -13 -55 -4 -73 31 l-15 32 62 3 c77 3 93 8 79
25 -5 6 -8 20 -7 29 4 23 -37 62 -67 63 -13 1 -33 -2 -44 -7z m68 -35 c18 -16
24 -42 11 -44 -5 -1 -27 -2 -50 -3 -34 -1 -43 2 -43 16 0 21 26 48 47 48 9 0
25 -7 35 -17z"/>
<path d="M3690 3222 c-8 -3 -18 -10 -22 -16 -5 -8 -8 -7 -8 2 0 6 -7 12 -15
12 -12 0 -15 -18 -15 -100 0 -82 3 -100 15 -100 12 0 15 14 15 63 0 63 16 111
38 113 29 3 32 4 32 13 0 12 -22 19 -40 13z"/>
<path d="M3769 3225 c-1 -6 -2 -48 -4 -95 -2 -90 5 -134 20 -110 12 20 10 189
-4 203 -6 6 -12 7 -12 2z"/>
<path d="M3893 3222 c-13 -2 -23 -10 -23 -17 0 -10 9 -12 34 -8 24 4 40 1 50
-10 17 -17 11 -49 -8 -45 -6 1 -27 -1 -46 -5 -36 -8 -78 -51 -60 -62 5 -3 10
-15 10 -26 0 -30 55 -46 87 -26 7 4 23 5 36 2 l24 -6 -2 86 c-2 110 -21 131
-102 117z m72 -113 c11 -17 -7 -54 -30 -65 -19 -9 -28 -9 -44 3 -27 18 -27 38
-1 56 23 16 67 19 75 6z"/>
<path d="M4443 3217 c-34 -15 -28 -27 11 -20 37 6 76 -10 76 -32 0 -15 -34
-30 -49 -21 -5 3 -24 -5 -42 -17 -28 -19 -34 -29 -32 -56 0 -18 5 -37 10 -42
13 -13 72 -19 78 -8 8 13 45 11 45 -2 0 -5 4 -8 9 -5 4 3 8 44 7 91 -1 64 -6
89 -18 101 -19 20 -65 25 -95 11z m82 -109 c14 -14 -8 -57 -34 -66 -50 -17
-80 32 -38 63 17 12 61 14 72 3z"/>
<path d="M4737 3213 c-55 -28 -60 -146 -9 -181 24 -16 37 -17 95 -13 9 0 17 7
17 14 0 8 -12 11 -37 9 -42 -4 -67 11 -78 46 -6 21 -4 22 64 22 l69 0 -3 36
c-6 66 -61 97 -118 67z m75 -30 c21 -19 24 -43 6 -44 -7 0 -30 -2 -50 -4 -44
-3 -55 14 -27 44 24 25 46 27 71 4z"/>
<path d="M4964 3219 c-3 -5 -17 -8 -32 -7 l-27 3 0 -93 c-1 -85 6 -114 22 -98
3 3 6 34 7 68 1 35 7 72 13 82 12 22 69 31 80 13 4 -7 8 -46 8 -87 1 -58 4
-75 16 -75 21 0 20 147 -1 175 -16 22 -76 35 -86 19z"/>
<path d="M5745 3210 c-15 -17 -14 -18 30 -15 36 3 47 0 56 -16 13 -25 6 -36
-23 -37 -60 -3 -87 -20 -92 -58 -8 -59 35 -82 112 -58 15 4 22 2 22 -7 0 -11
2 -11 10 1 13 19 11 170 -2 170 -5 0 -7 4 -3 9 3 5 -5 13 -17 17 -44 14 -77
12 -93 -6z m95 -105 c9 -11 9 -15 1 -15 -6 0 -10 -3 -10 -7 3 -21 -3 -31 -25
-41 -29 -13 -68 9 -64 36 6 34 77 53 98 27z"/>
<path d="M5984 3218 c-4 -5 -17 -7 -30 -4 -18 5 -24 2 -25 -11 -4 -100 -3
-166 4 -170 4 -2 5 -9 2 -14 -3 -5 0 -6 8 -4 9 4 13 24 12 68 -1 81 15 117 55
117 35 0 44 -18 46 -92 2 -40 3 -77 3 -81 1 -5 7 -7 14 -5 14 5 19 156 5 164
-5 3 -6 9 -3 14 3 4 -7 11 -23 16 -41 12 -62 12 -68 2z"/>
<path d="M6178 3219 c-30 -17 -20 -29 20 -23 28 4 42 1 51 -10 18 -22 6 -46
-21 -45 -58 4 -106 -40 -92 -84 13 -42 46 -51 112 -31 14 4 22 2 22 -5 0 -7 5
-9 10 -6 6 4 9 33 8 65 -1 32 1 62 4 65 11 11 -24 75 -41 76 -9 0 -25 2 -36 4
-11 2 -28 -1 -37 -6z m77 -110 c12 -18 -4 -55 -29 -67 -20 -9 -27 -7 -45 9
-26 25 -26 33 0 51 27 17 66 21 74 7z"/>
<path d="M6396 3222 c-43 -9 -68 -71 -55 -132 11 -52 43 -73 100 -66 44 6 47
5 42 -14 -3 -11 -9 -20 -14 -20 -5 0 -9 -7 -9 -15 0 -8 -4 -15 -10 -16 -36 -4
-57 -2 -69 5 -7 5 -17 4 -23 -2 -14 -14 7 -25 52 -27 27 -2 46 4 66 20 28 22
29 27 31 112 1 50 3 94 4 99 6 34 -2 54 -23 53 -13 0 -34 2 -48 4 -14 2 -34 2
-44 -1z m72 -36 c8 -9 14 -78 8 -102 -9 -34 -51 -49 -82 -29 -19 12 -24 24
-24 58 0 60 24 91 63 83 17 -3 32 -8 35 -10z"/>
<path d="M6584 3197 c-13 -15 -24 -34 -25 -40 -1 -7 -2 -25 -3 -40 -2 -15 1
-30 6 -33 4 -3 6 -9 3 -14 -3 -4 6 -18 19 -31 31 -30 102 -35 116 -8 9 15 7
17 -18 13 -15 -2 -33 -7 -39 -9 -7 -2 -13 0 -13 5 0 6 -6 10 -14 10 -14 0 -26
21 -26 46 0 10 15 14 60 14 48 0 61 4 70 19 7 14 7 22 0 26 -6 4 -8 10 -6 13
2 4 -4 18 -13 31 -28 37 -85 36 -117 -2z m92 -14 c27 -36 18 -50 -33 -48 -52
1 -64 16 -37 46 21 24 53 25 70 2z"/>
<path d="M6825 3222 c-4 -4 -17 -7 -28 -7 -21 0 -22 -5 -25 -97 -2 -83 0 -98
13 -98 12 0 15 11 12 60 -2 34 0 63 5 66 5 3 6 8 4 12 -6 10 16 36 32 40 7 1
22 -2 32 -8 17 -9 20 -21 20 -89 0 -57 4 -80 14 -84 10 -4 13 6 14 36 3 120
13 146 53 147 31 0 42 -28 40 -105 -2 -60 1 -75 12 -75 8 0 17 7 21 15 3 8 1
15 -4 15 -6 0 -6 9 -1 23 5 14 5 30 0 40 -6 11 -6 17 -1 17 20 0 -9 77 -33 88
-27 13 -65 8 -75 -9 -6 -8 -14 -8 -31 2 -28 14 -65 20 -74 11z"/>
<path d="M7121 3205 c-15 -13 -28 -30 -29 -37 -8 -79 -4 -104 22 -129 28 -27
99 -35 117 -12 16 19 6 25 -23 14 -19 -7 -33 -5 -57 10 -18 11 -29 24 -26 29
3 6 1 10 -6 10 -10 0 -10 3 -1 12 7 7 34 11 66 9 67 -3 84 16 59 66 -24 52
-79 64 -122 28z m83 -21 c9 -8 16 -23 16 -33 0 -16 -19 -19 -88 -12 -17 1 -11
32 8 48 21 17 46 16 64 -3z"/>
<path d="M7346 3213 c-16 -8 -25 -10 -22 -4 4 6 0 11 -9 11 -13 0 -16 -12 -15
-67 0 -38 -1 -79 -3 -93 -2 -23 8 -39 24 -40 4 0 9 36 10 79 2 44 6 82 9 84
14 14 57 17 73 5 15 -11 18 -28 18 -91 0 -60 3 -77 15 -77 11 0 14 16 14 73 0
39 -3 82 -6 94 -10 36 -63 49 -108 26z"/>
<path d="M3415 3210 c-8 -13 -8 -134 -1 -158 4 -11 19 -25 35 -32 30 -12 81
-4 81 13 0 7 4 7 12 -1 24 -24 28 -10 28 88 0 82 -3 100 -15 100 -12 0 -15
-14 -15 -70 0 -64 -3 -74 -27 -98 -17 -17 -28 -22 -31 -14 -2 7 -8 10 -12 7
-21 -13 -37 36 -33 105 3 64 -5 87 -22 60z"/>
</g>
</svg>
